<?xml version="1.0" encoding="UTF-8" standalone="no"?>
<!-- Created with Inkscape (http://www.inkscape.org/) -->

<svg
   xmlns:dc="http://purl.org/dc/elements/1.1/"
   xmlns:cc="http://creativecommons.org/ns#"
   xmlns:rdf="http://www.w3.org/1999/02/22-rdf-syntax-ns#"
   xmlns:svg="http://www.w3.org/2000/svg"
   xmlns="http://www.w3.org/2000/svg"
   xmlns:sodipodi="http://sodipodi.sourceforge.net/DTD/sodipodi-0.dtd"
   xmlns:inkscape="http://www.inkscape.org/namespaces/inkscape"
   width="32"
   height="32"
   viewBox="0 0 32 32"
   id="svg3337"
   version="1.1"
   inkscape:version="0.91 r"
   sodipodi:docname="favicon.svg">
  <defs
     id="defs3339" />
  <sodipodi:namedview
     id="base"
     pagecolor="#ffffff"
     bordercolor="#666666"
     borderopacity="1.0"
     inkscape:pageopacity="0.0"
     inkscape:pageshadow="2"
     inkscape:zoom="3.959798"
     inkscape:cx="9.7839396"
     inkscape:cy="8.8580579"
     inkscape:document-units="px"
     inkscape:current-layer="layer1"
     showgrid="false"
     units="px"
     inkscape:window-width="1318"
     inkscape:window-height="743"
     inkscape:window-x="48"
     inkscape:window-y="0"
     inkscape:window-maximized="1" />
  <metadata
     id="metadata3342">
    <rdf:RDF>
      <cc:Work
         rdf:about="">
        <dc:format>image/svg+xml</dc:format>
        <dc:type
           rdf:resource="http://purl.org/dc/dcmitype/StillImage" />
        <dc:title />
      </cc:Work>
    </rdf:RDF>
  </metadata>
  <g
     inkscape:label="Ebene 1"
     inkscape:groupmode="layer"
     id="layer1"
     transform="translate(0,-1020.3622)">
    <rect
       ry="3.0000002"
       rx="3.0000002"
       y="1020.8622"
       x="0.5"
       height="31"
       width="31"
       id="rect3375"
       style="opacity:1;fill:#233369;fill-opacity:1;fill-rule:evenodd;stroke:#233369;stroke-width:1;stroke-linecap:round;stroke-linejoin:round;stroke-miterlimit:4;stroke-dasharray:none;stroke-dashoffset:0;stroke-opacity:1" />
    <path
       style="color:#000000;font-style:normal;font-variant:normal;font-weight:normal;font-stretch:normal;font-size:medium;line-height:normal;font-family:sans-serif;text-indent:0;text-align:start;text-decoration:none;text-decoration-line:none;text-decoration-style:solid;text-decoration-color:#000000;letter-spacing:normal;word-spacing:normal;text-transform:none;direction:ltr;block-progression:tb;writing-mode:lr-tb;baseline-shift:baseline;text-anchor:start;white-space:normal;clip-rule:nonzero;display:inline;overflow:visible;visibility:visible;opacity:1;isolation:auto;mix-blend-mode:normal;color-interpolation:sRGB;color-interpolation-filters:linearRGB;solid-color:#000000;solid-opacity:1;fill:#eed78f;fill-opacity:1;fill-rule:evenodd;stroke:#eed78f;stroke-width:1.8;stroke-linecap:round;stroke-linejoin:round;stroke-miterlimit:4;stroke-dasharray:none;stroke-dashoffset:0;stroke-opacity:1;color-rendering:auto;image-rendering:auto;shape-rendering:auto;text-rendering:auto;enable-background:accumulate"
       d="m 3.7316381,1036.5552 a 1.2043344,1.354561 0 0 0 -1.2352559,1.5703 c 0.7157022,5.4496 4.1485822,9.9629 8.8246268,11.6015 4.676044,1.6388 9.781013,0.1171 13.122167,-3.9109 a 1.2043344,1.354561 0 1 0 -1.761158,-1.8474 c -2.713692,3.2714 -6.846236,4.5022 -10.644126,3.1712 -3.7978904,-1.331 -6.5771893,-4.9839 -7.1584899,-9.4101 a 1.2043344,1.354561 0 0 0 -1.147764,-1.1746 z"
       id="path4826"
       inkscape:connector-curvature="0" />
    <path
       style="font-style:normal;font-variant:normal;font-weight:normal;font-stretch:normal;font-size:medium;line-height:100%;font-family:'Corporate Logo Medium';-inkscape-font-specification:'Corporate Logo Medium, ';text-align:center;letter-spacing:0px;word-spacing:0px;text-anchor:middle;fill:#eed78f;fill-opacity:1;stroke:#eed78f;stroke-width:1.8;stroke-linecap:butt;stroke-linejoin:miter;stroke-miterlimit:4;stroke-dasharray:none;stroke-opacity:1"
       d="m 15.900974,1036.4942 -0.844611,-2.9574 q 1.048277,-0.321 2.177378,-0.8806 l -3.733103,-2.2115 q -0.387117,2.6782 -0.573166,4.0013 l -2.795948,-0.5096 q 0.272698,-1.6404 0.726859,-5.0568 l -0.824181,-0.4883 q -2.3679664,1.7504 -4.7265927,2.6875 l -0.6575877,-3.0924 q 4.3455315,-1.8075 7.4087404,-5.4394 l 2.032664,1.9413 q -0.545091,0.7009 -1.512548,1.6429 l 6.229917,3.6906 -1.230999,2.6287 q 3.151802,-1.5728 5.137698,-3.6315 l 2.032658,1.9412 q -0.569141,0.6866 -1.624506,1.6176 l 6.229904,3.6906 -1.38112,2.9493 -3.951259,-2.3407 q -0.292376,2.0791 -0.440276,3.0563 l -2.79596,-0.5097 q 0.513003,-3.0132 0.618221,-4.0975 l -1.115082,-0.6605 q -2.182045,1.2873 -4.3871,2.0286 z"
       id="path4833"
       inkscape:connector-curvature="0" />
  </g>
</svg>
