<?xml version="1.0" encoding="UTF-8" standalone="no"?>
<!-- Created with Inkscape (http://www.inkscape.org/) -->

<svg
   xmlns:dc="http://purl.org/dc/elements/1.1/"
   xmlns:cc="http://creativecommons.org/ns#"
   xmlns:rdf="http://www.w3.org/1999/02/22-rdf-syntax-ns#"
   xmlns:svg="http://www.w3.org/2000/svg"
   xmlns="http://www.w3.org/2000/svg"
   xmlns:sodipodi="http://sodipodi.sourceforge.net/DTD/sodipodi-0.dtd"
   xmlns:inkscape="http://www.inkscape.org/namespaces/inkscape"
   width="32"
   height="32"
   viewBox="0 0 32 32"
   id="svg3337"
   version="1.1"
   inkscape:version="0.91 r"
   sodipodi:docname="favicon.svg">
  <defs
     id="defs3339" />
  <sodipodi:namedview
     id="base"
     pagecolor="#ffffff"
     bordercolor="#666666"
     borderopacity="1.0"
     inkscape:pageopacity="0.0"
     inkscape:pageshadow="2"
     inkscape:zoom="3.959798"
     inkscape:cx="9.7839396"
     inkscape:cy="39.162634"
     inkscape:document-units="px"
     inkscape:current-layer="layer1"
     showgrid="false"
     units="px"
     inkscape:window-width="1318"
     inkscape:window-height="743"
     inkscape:window-x="48"
     inkscape:window-y="0"
     inkscape:window-maximized="1" />
  <metadata
     id="metadata3342">
    <rdf:RDF>
      <cc:Work
         rdf:about="">
        <dc:format>image/svg+xml</dc:format>
        <dc:type
           rdf:resource="http://purl.org/dc/dcmitype/StillImage" />
        <dc:title></dc:title>
      </cc:Work>
    </rdf:RDF>
  </metadata>
  <g
     inkscape:label="Ebene 1"
     inkscape:groupmode="layer"
     id="layer1"
     transform="translate(0,-1020.3622)">
    <rect
       ry="3.0000002"
       rx="3.0000002"
       y="1020.8622"
       x="0.5"
       height="31"
       width="31"
       id="rect3375"
       style="opacity:1;fill:#b3e6cc;fill-opacity:1;fill-rule:evenodd;stroke:#000000;stroke-width:1;stroke-linecap:round;stroke-linejoin:round;stroke-miterlimit:4;stroke-dasharray:none;stroke-dashoffset:0;stroke-opacity:1" />
    <g
       id="g3423"
       transform="matrix(0.74085952,0,0,0.83366861,-8.5698527,189.81361)">
      <path
         inkscape:connector-curvature="0"
         id="path4826"
         d="m 16.60435,1015.6813 a 1.6255908,1.6248195 0 0 0 -1.667328,1.8836 c 0.966043,6.5369 5.599688,11.9506 11.911336,13.9162 6.311648,1.9657 13.20225,0.1404 17.712086,-4.6912 a 1.6255908,1.6248195 0 1 0 -2.377183,-2.216 c -3.662896,3.9241 -9.240936,5.4004 -14.367266,3.8039 -5.12633,-1.5965 -8.877782,-5.9783 -9.662412,-11.2876 a 1.6255908,1.6248195 0 0 0 -1.549233,-1.4089 z"
         style="color:#000000;font-style:normal;font-variant:normal;font-weight:normal;font-stretch:normal;font-size:medium;line-height:normal;font-family:sans-serif;text-indent:0;text-align:start;text-decoration:none;text-decoration-line:none;text-decoration-style:solid;text-decoration-color:#000000;letter-spacing:normal;word-spacing:normal;text-transform:none;direction:ltr;block-progression:tb;writing-mode:lr-tb;baseline-shift:baseline;text-anchor:start;white-space:normal;clip-rule:nonzero;display:inline;overflow:visible;visibility:visible;opacity:1;isolation:auto;mix-blend-mode:normal;color-interpolation:sRGB;color-interpolation-filters:linearRGB;solid-color:#000000;solid-opacity:1;fill:#00994c;fill-opacity:1;fill-rule:evenodd;stroke:#000000;stroke-width:1.27243423;stroke-linecap:round;stroke-linejoin:round;stroke-miterlimit:4;stroke-dasharray:none;stroke-dashoffset:0;stroke-opacity:1;color-rendering:auto;image-rendering:auto;shape-rendering:auto;text-rendering:auto;enable-background:accumulate" />
      <path
         inkscape:connector-curvature="0"
         id="path4833"
         d="m 33.030319,1015.6081 -1.140041,-3.5475 q 1.414946,-0.385 2.938988,-1.0562 l -5.038881,-2.6528 q -0.522523,3.2126 -0.77365,4.7997 l -3.773924,-0.6113 q 0.368083,-1.9677 0.981102,-6.0658 l -1.112466,-0.5857 q -3.196242,2.0997 -6.379877,3.2237 l -0.887601,-3.7093 q 5.865527,-2.1682 10.000196,-6.52469 l 2.743656,2.32859 q -0.735754,0.8407 -2.041612,1.9707 l 8.409039,4.4269 -1.661582,3.1532 q 4.254251,-1.8866 6.934781,-4.356 l 2.743648,2.3285 q -0.768217,0.8236 -2.192732,1.9403 l 8.409022,4.4269 -1.864212,3.5378 -5.333345,-2.8077 q -0.394644,2.4939 -0.594277,3.666 l -3.773941,-0.6113 q 0.692443,-3.6144 0.834465,-4.9151 l -1.50512,-0.7923 q -2.945288,1.5442 -5.921636,2.4334 z"
         style="font-style:normal;font-variant:normal;font-weight:normal;font-stretch:normal;font-size:medium;line-height:100%;font-family:'Corporate Logo Medium';-inkscape-font-specification:'Corporate Logo Medium, ';text-align:center;letter-spacing:0px;word-spacing:0px;text-anchor:middle;fill:#00994c;fill-opacity:1;stroke:#000000;stroke-width:1.27243423;stroke-linecap:butt;stroke-linejoin:miter;stroke-miterlimit:4;stroke-dasharray:none;stroke-opacity:1" />
    </g>
  </g>
</svg>
