<?xml version="1.0" encoding="UTF-8" standalone="no"?>
<!-- Created with Inkscape (http://www.inkscape.org/) -->

<svg
        xmlns:dc="http://purl.org/dc/elements/1.1/"
        xmlns:cc="http://creativecommons.org/ns#"
        xmlns:rdf="http://www.w3.org/1999/02/22-rdf-syntax-ns#"
        xmlns:svg="http://www.w3.org/2000/svg"
        xmlns="http://www.w3.org/2000/svg"
        xmlns:sodipodi="http://sodipodi.sourceforge.net/DTD/sodipodi-0.dtd"
        xmlns:inkscape="http://www.inkscape.org/namespaces/inkscape"
        width="81.657364"
        height="49.865707"
        viewBox="0 0 81.657363 49.865707"
        id="svg2"
        version="1.1"
        inkscape:version="0.91 r"
        sodipodi:docname="warau-logo2.svg">
    <defs
            id="defs4" />
    <sodipodi:namedview
            id="base"
            pagecolor="#ffffff"
            bordercolor="#666666"
            borderopacity="1.0"
            inkscape:pageopacity="0.0"
            inkscape:pageshadow="2"
            inkscape:zoom="3.959798"
            inkscape:cx="33.423837"
            inkscape:cy="25.193182"
            inkscape:document-units="px"
            inkscape:current-layer="g4210"
            showgrid="false"
            inkscape:window-width="1318"
            inkscape:window-height="743"
            inkscape:window-x="48"
            inkscape:window-y="0"
            inkscape:window-maximized="1"
            fit-margin-top="0"
            fit-margin-left="0"
            fit-margin-right="0"
            fit-margin-bottom="0"
            units="px" />
    <metadata
            id="metadata7">
        <rdf:RDF>
            <cc:Work
                    rdf:about="">
                <dc:format>image/svg+xml</dc:format>
                <dc:type
                        rdf:resource="http://purl.org/dc/dcmitype/StillImage" />
                <dc:title></dc:title>
            </cc:Work>
        </rdf:RDF>
    </metadata>
    <g
            inkscape:label="Ebene 1"
            inkscape:groupmode="layer"
            id="layer1"
            transform="translate(-156.97379,-441.05552)">
        <g
                id="g4210"
                transform="matrix(0.79571999,0,0,0.79571999,40.193092,94.655555)">
            <path
                    style="opacity:1;fill:#00994C;fill-opacity:1;fill-rule:evenodd;stroke:#000000;stroke-width:0.94603664;stroke-linecap:round;stroke-linejoin:round;stroke-miterlimit:4;stroke-dasharray:none;stroke-dashoffset:0;stroke-opacity:1"
                    d="m 154.24786,435.80199 87.64711,0 c 3.88564,0 7.01379,3.21753 7.01379,7.21418 l 0,47.29301 c 0,3.99665 -3.12815,7.21418 -7.01379,7.21418 l -87.64711,0 c -3.88564,0 -7.01379,-3.21753 -7.01379,-7.21418 l 0,-47.29301 c 0,-3.99665 3.12815,-7.21418 7.01379,-7.21418 z"
                    id="circle4159"
                    inkscape:connector-curvature="0" />
            <text
         sodipodi:linespacing="100%"
         id="text4166"
         y="467.11694"
         x="160.0666"
         style="font-style:normal;font-variant:normal;font-weight:normal;font-stretch:normal;font-size:16.07670593px;line-height:100%;font-family:'Corporate Logo Bold';-inkscape-font-specification:'Corporate Logo Bold, ';text-align:center;letter-spacing:0px;word-spacing:0px;text-anchor:middle;fill:#000000;fill-opacity:1;stroke:none;stroke-width:1px;stroke-linecap:butt;stroke-linejoin:miter;stroke-opacity:1"
         xml:space="preserve"><tspan
           y="467.11694"
           x="160.0666"
           id="tspan4168"
           sodipodi:role="line">笑</tspan><tspan
           y="483.19366"
           x="160.0666"
           sodipodi:role="line"
           id="tspan4216">う</tspan><tspan
           id="tspan4170"
           y="499.27036"
           x="160.0666"
           sodipodi:role="line" /></text>
            <path
                    id="path4232"
                    style="opacity:1;fill:#ffffff;fill-opacity:1;fill-rule:evenodd;stroke:#000000;stroke-width:0.94603664;stroke-linecap:round;stroke-linejoin:round;stroke-miterlimit:4;stroke-dasharray:none;stroke-dashoffset:0;stroke-opacity:1"
                    d="m 227.62014,465.78623 c 0,11.58229 -9.38931,20.9716 -20.9716,20.9716 -11.58229,0 -20.97159,-9.38931 -20.97159,-20.9716 0,-11.58229 9.3893,-20.97159 20.97159,-20.97159 11.58229,0 20.9716,9.3893 20.9716,20.97159 z m -4.93589,0 c 0,8.85629 -7.17942,16.03571 -16.03571,16.03571 -8.85627,0 -16.0357,-7.17944 -16.0357,-16.03571 0,-8.85627 7.17943,-16.0357 16.0357,-16.0357 8.85627,0 16.03571,7.17943 16.03571,16.0357 z"
                    inkscape:connector-curvature="0" />
            <path
                    style="opacity:1;fill:#ffffff;fill-opacity:1;fill-rule:evenodd;stroke:#000000;stroke-width:0.94603664;stroke-linecap:round;stroke-linejoin:round;stroke-miterlimit:4;stroke-dasharray:none;stroke-dashoffset:0;stroke-opacity:1"
                    d="m 154.53127,439.76961 11.67678,0 c 2.0016,0 3.613,1.82717 3.613,4.09679 l 0,1.13928 c 0,2.26962 -1.6114,4.09679 -3.613,4.09679 l -11.67678,0 c -2.00159,0 -3.61299,-1.82717 -3.61299,-4.09679 l 0,-1.13928 c 0,-2.26962 1.6114,-4.09679 3.61299,-4.09679 z"
                    id="path4234"
                    inkscape:connector-curvature="0" />
        </g>
    </g>
</svg>
