<svg xmlns="http://www.w3.org/2000/svg" width="100" height="100" viewBox="0 0 100 100.26445"><g stroke="#000"><rect width="100" height="100" ry="3.182" rx="3.182" fill="#00994c" fill-rule="evenodd" stroke-linecap="round" stroke-linejoin="round"/><rect ry="2" rx="2" y="5" x="5" height="80" width="90" fill="#b3e6cc" fill-rule="evenodd" stroke-linecap="round" stroke-linejoin="round"/><path style="line-height:100%;-inkscape-font-specification:'Corporate Logo Medium, ';text-align:center" d="M49.91 43.452l-2.177-7.358q2.701-.799 5.611-2.191l-9.62-5.502q-.998 6.663-1.478 9.955l-7.206-1.268q.703-4.081 1.874-12.581l-2.125-1.215q-6.102 4.355-12.181 6.686l-1.695-7.693q11.2-4.497 19.094-13.533l5.239 4.83q-1.405 1.743-3.898 4.087l16.056 9.182-3.173 6.54q8.123-3.913 13.241-9.035l5.239 4.83q-1.467 1.708-4.187 4.024l16.056 9.182-3.56 7.338-10.183-5.823q-.753 5.172-1.135 7.603l-7.205-1.268q1.322-7.496 1.593-10.194l-2.874-1.643q-5.624 3.202-11.307 5.047zm-31.364.152a3.104 3.37 0 0 0-3.183 3.907c1.844 13.558 10.692 24.787 22.743 28.864 12.051 4.077 25.208.29 33.819-9.73a3.104 3.37 0 1 0-4.54-4.597c-6.993 8.14-17.644 11.201-27.432 7.89-9.788-3.311-16.95-12.4-18.449-23.412a3.104 3.37 0 0 0-2.958-2.922z" font-weight="400" font-family="Corporate Logo Medium" letter-spacing="0" word-spacing="0" text-anchor="middle" fill="#00994c"/></g></svg>