<?xml version="1.0" encoding="UTF-8" standalone="no"?>
<!-- Created with Inkscape (http://www.inkscape.org/) -->

<svg
   xmlns:dc="http://purl.org/dc/elements/1.1/"
   xmlns:cc="http://creativecommons.org/ns#"
   xmlns:rdf="http://www.w3.org/1999/02/22-rdf-syntax-ns#"
   xmlns:svg="http://www.w3.org/2000/svg"
   xmlns="http://www.w3.org/2000/svg"
   xmlns:xlink="http://www.w3.org/1999/xlink"
   xmlns:sodipodi="http://sodipodi.sourceforge.net/DTD/sodipodi-0.dtd"
   xmlns:inkscape="http://www.inkscape.org/namespaces/inkscape"
   width="210mm"
   height="297mm"
   viewBox="0 0 744.09448819 1052.3622047"
   id="svg2"
   version="1.1"
   inkscape:version="0.91 r"
   sodipodi:docname="mare-mountain.svg">
  <defs
     id="defs4">
    <linearGradient
       id="linearGradient3203">
      <stop
         stop-color="#ffb142"
         id="stop3205"
         offset="0" />
      <stop
         stop-color="#ffb141"
         id="stop4092"
         offset="0.886792" />
      <stop
         stop-color="#c87600"
         id="stop3207"
         offset="1" />
    </linearGradient>
    <linearGradient
       gradientTransform="matrix(0.6415,0,0,-0.7781,-31.1663,4.888)"
       gradientUnits="userSpaceOnUse"
       id="path2391_2_"
       y2="-137.29201"
       x2="361.62851"
       y1="-137.29201"
       x1="348.28809">
      <stop
         stop-color="#fbb045"
         id="stop323"
         offset="0" />
      <stop
         stop-color="#c77829"
         id="stop325"
         offset="1" />
    </linearGradient>
    <radialGradient
       r="123.54523"
       fy="-8.880473"
       fx="414.68207"
       cy="-8.880473"
       cx="414.68207"
       gradientTransform="matrix(-5.8290882e-6,0.8941855,-1.9479265,1.125115e-8,598.73328,580.57618)"
       gradientUnits="userSpaceOnUse"
       id="radialGradient6267"
       xlink:href="#linearGradient3203" />
    <linearGradient
       y2="0.50018"
       x2="0.632574"
       y1="0.50018"
       x1="0.435341"
       id="linearGradient6269"
       xlink:href="#path2391_2_" />
    <linearGradient
       inkscape:collect="always"
       id="linearGradient2057">
      <stop
         style="stop-color:#000000;stop-opacity:1;"
         offset="0"
         id="stop2059" />
      <stop
         style="stop-color:#000000;stop-opacity:0;"
         offset="1"
         id="stop2061" />
    </linearGradient>
    <radialGradient
       xlink:href="#linearGradient2057"
       r="8.2519293"
       inkscape:collect="always"
       id="radialGradient2063"
       gradientUnits="userSpaceOnUse"
       gradientTransform="scale(1.395230,0.716728)"
       fy="222.04396"
       fx="14.207293"
       cy="222.04396"
       cx="14.207293" />
    <radialGradient
       xlink:href="#linearGradient2057"
       r="8.2519293"
       inkscape:collect="always"
       id="radialGradient1315"
       gradientUnits="userSpaceOnUse"
       gradientTransform="scale(1.395230,0.716728)"
       fy="222.04396"
       fx="14.207293"
       cy="222.04396"
       cx="14.207293" />
    <radialGradient
       xlink:href="#linearGradient2057"
       r="8.2519293"
       inkscape:collect="always"
       id="radialGradient1319"
       gradientUnits="userSpaceOnUse"
       gradientTransform="scale(1.395230,0.716728)"
       fy="222.04396"
       fx="14.207293"
       cy="222.04396"
       cx="14.207293" />
    <radialGradient
       xlink:href="#linearGradient2057"
       r="8.2519293"
       inkscape:collect="always"
       id="radialGradient1323"
       gradientUnits="userSpaceOnUse"
       gradientTransform="scale(1.395230,0.716728)"
       fy="222.04396"
       fx="14.207293"
       cy="222.04396"
       cx="14.207293" />
    <radialGradient
       xlink:href="#linearGradient2057"
       r="8.2519293"
       inkscape:collect="always"
       id="radialGradient1327"
       gradientUnits="userSpaceOnUse"
       gradientTransform="scale(1.395230,0.716728)"
       fy="222.04396"
       fx="14.207293"
       cy="222.04396"
       cx="14.207293" />
    <radialGradient
       xlink:href="#linearGradient2057"
       r="8.2519293"
       inkscape:collect="always"
       id="radialGradient1331"
       gradientUnits="userSpaceOnUse"
       gradientTransform="scale(1.395230,0.716728)"
       fy="222.04396"
       fx="14.207293"
       cy="222.04396"
       cx="14.207293" />
    <radialGradient
       xlink:href="#linearGradient2057"
       r="8.2519293"
       inkscape:collect="always"
       id="radialGradient1335"
       gradientUnits="userSpaceOnUse"
       gradientTransform="scale(1.395230,0.716728)"
       fy="222.04396"
       fx="14.207293"
       cy="222.04396"
       cx="14.207293" />
    <radialGradient
       xlink:href="#linearGradient2057"
       r="8.2519293"
       inkscape:collect="always"
       id="radialGradient1339"
       gradientUnits="userSpaceOnUse"
       gradientTransform="scale(1.395230,0.716728)"
       fy="222.04396"
       fx="14.207293"
       cy="222.04396"
       cx="14.207293" />
    <radialGradient
       xlink:href="#linearGradient2057"
       r="8.2519293"
       inkscape:collect="always"
       id="radialGradient1343"
       gradientUnits="userSpaceOnUse"
       gradientTransform="scale(1.395230,0.716728)"
       fy="222.04396"
       fx="14.207293"
       cy="222.04396"
       cx="14.207293" />
    <radialGradient
       xlink:href="#linearGradient2057"
       r="8.2519293"
       inkscape:collect="always"
       id="radialGradient1347"
       gradientUnits="userSpaceOnUse"
       gradientTransform="scale(1.395230,0.716728)"
       fy="222.04396"
       fx="14.207293"
       cy="222.04396"
       cx="14.207293" />
    <radialGradient
       xlink:href="#linearGradient2057"
       r="8.2519293"
       inkscape:collect="always"
       id="radialGradient1351"
       gradientUnits="userSpaceOnUse"
       gradientTransform="scale(1.395230,0.716728)"
       fy="222.04396"
       fx="14.207293"
       cy="222.04396"
       cx="14.207293" />
    <radialGradient
       xlink:href="#linearGradient2057"
       r="8.2519293"
       inkscape:collect="always"
       id="radialGradient1355"
       gradientUnits="userSpaceOnUse"
       gradientTransform="scale(1.395230,0.716728)"
       fy="222.04396"
       fx="14.207293"
       cy="222.04396"
       cx="14.207293" />
    <radialGradient
       xlink:href="#linearGradient2057"
       r="8.2519293"
       inkscape:collect="always"
       id="radialGradient1359"
       gradientUnits="userSpaceOnUse"
       gradientTransform="scale(1.395230,0.716728)"
       fy="222.04396"
       fx="14.207293"
       cy="222.04396"
       cx="14.207293" />
    <radialGradient
       xlink:href="#linearGradient2057"
       r="8.2519293"
       inkscape:collect="always"
       id="radialGradient1363"
       gradientUnits="userSpaceOnUse"
       gradientTransform="scale(1.395230,0.716728)"
       fy="222.04396"
       fx="14.207293"
       cy="222.04396"
       cx="14.207293" />
    <radialGradient
       xlink:href="#linearGradient2057"
       r="8.2519293"
       inkscape:collect="always"
       id="radialGradient1367"
       gradientUnits="userSpaceOnUse"
       gradientTransform="scale(1.395230,0.716728)"
       fy="222.04396"
       fx="14.207293"
       cy="222.04396"
       cx="14.207293" />
    <radialGradient
       xlink:href="#linearGradient2057"
       r="8.2519293"
       inkscape:collect="always"
       id="radialGradient1371"
       gradientUnits="userSpaceOnUse"
       gradientTransform="scale(1.395230,0.716728)"
       fy="222.04396"
       fx="14.207293"
       cy="222.04396"
       cx="14.207293" />
    <radialGradient
       xlink:href="#linearGradient2057"
       r="8.2519293"
       inkscape:collect="always"
       id="radialGradient1375"
       gradientUnits="userSpaceOnUse"
       gradientTransform="scale(1.395230,0.716728)"
       fy="222.04396"
       fx="14.207293"
       cy="222.04396"
       cx="14.207293" />
  </defs>
  <sodipodi:namedview
     id="base"
     pagecolor="#ffffff"
     bordercolor="#666666"
     borderopacity="1.0"
     inkscape:pageopacity="0.0"
     inkscape:pageshadow="2"
     inkscape:zoom="0.35"
     inkscape:cx="3.5714286"
     inkscape:cy="520"
     inkscape:document-units="px"
     inkscape:current-layer="layer1"
     showgrid="false"
     inkscape:window-width="1920"
     inkscape:window-height="1055"
     inkscape:window-x="1680"
     inkscape:window-y="0"
     inkscape:window-maximized="1" />
  <metadata
     id="metadata7">
    <rdf:RDF>
      <cc:Work
         rdf:about="">
        <dc:format>image/svg+xml</dc:format>
        <dc:type
           rdf:resource="http://purl.org/dc/dcmitype/StillImage" />
        <dc:title></dc:title>
      </cc:Work>
    </rdf:RDF>
  </metadata>
  <g
     inkscape:label="Ebene 1"
     inkscape:groupmode="layer"
     id="layer1">
    <rect
       style="opacity:1;fill:#afc6e9;fill-opacity:1;fill-rule:evenodd;stroke:none;stroke-width:0.1;stroke-linecap:round;stroke-linejoin:round;stroke-miterlimit:4;stroke-dasharray:none;stroke-dashoffset:0;stroke-opacity:1"
       id="rect3439"
       width="737.14288"
       height="1051.4286"
       x="8.5714302"
       y="-10.494937"
       rx="2"
       ry="2" />
    <rect
       style="opacity:1;fill:#0000ff;fill-opacity:1;fill-rule:evenodd;stroke:none;stroke-width:0.1;stroke-linecap:round;stroke-linejoin:round;stroke-miterlimit:4;stroke-dasharray:none;stroke-dashoffset:0;stroke-opacity:1"
       id="rect3502"
       width="925.71429"
       height="485.71429"
       x="-82.85714"
       y="658.07648"
       rx="2"
       ry="2" />
    <g
       inkscape:label="Layer 1"
       id="layer1-2"
       transform="matrix(5.9523168,0,0,6.0273811,-11.600973,182.15139)">
      <g
         transform="matrix(2.469674,0,0,2.469674,-383.4758,5.3392)"
         id="g2016">
        <path
           style="fill:#e4e4e4;fill-opacity:1;fill-rule:evenodd;stroke:none;stroke-width:1px;stroke-linecap:butt;stroke-linejoin:miter;stroke-opacity:1"
           sodipodi:nodetypes="cccccccccccccccccccccccccccccccccccccccccccccccccccc"
           id="path2156"
           d="m 162.79429,16.883084 c 0.0322,0.738591 -0.50833,1.200071 -0.90716,1.731854 -0.49055,0.654065 -0.52489,1.642083 -0.8247,2.391608 -0.28783,0.71959 -0.47259,1.440005 -0.82469,2.1442 -0.36415,0.728303 -0.70017,1.585483 -0.98963,2.309139 -0.44569,1.114236 -0.85758,1.456621 -1.23704,2.721485 -0.23485,0.782853 -0.78926,1.342713 -0.98963,2.144201 -0.19314,0.77256 0.16494,1.736378 0.16494,2.556546 0,0.604775 0,1.209549 0,1.814324 0,0.697486 0.0924,1.035829 0.65975,1.319508 0.82837,0.414184 1.77798,0.197087 2.63902,0.412346 0.47821,0.119553 1.81165,0.798833 2.30914,0.798833 0.67052,0 0.50255,-0.03263 1.2218,0.127199 0.76271,0.169491 10.52515,-0.578112 11.86677,-1.24892 0.81521,-0.407605 1.99286,-0.60227 3.00662,-0.914151 -0.20798,-0.831958 0.46343,-0.09511 -1.25073,-1.319508 -0.5875,-0.419645 -0.87464,-0.764653 0.13573,-0.427861 0.71726,0.239087 1.30071,-0.247897 2.09094,0.01552 0.85605,0.285349 8.4547,-0.509093 9.6489,-0.907162 1.4749,-0.491633 2.10331,-0.989631 3.2163,-0.989631 0.75514,0 1.10861,0.128434 1.64939,-0.412346 0.10053,-0.100529 1.88184,1.385168 3.23028,1.048059 1.01184,-0.25296 3.96847,-0.726157 4.93417,-1.048059 0.19862,-0.0662 0.38486,-0.164938 0.57729,-0.247408 0.99222,-0.425237 1.93677,-0.369853 2.63901,-1.0721 0.29801,-0.298007 -0.90965,-2.559036 -1.15456,-2.803954 -0.97373,-0.97373 -1.55648,-1.991267 -2.9689,-2.226669 -0.67745,-0.112909 -1.09774,-0.82331 -1.64938,-1.237039 -0.52816,-0.396119 -0.637,-1.581108 -0.82469,-2.144201 -0.48433,-1.452981 -1.46564,-2.690137 -2.22667,-3.958523 -0.60699,-1.011643 -1.44523,-1.940046 -2.30914,-2.803955 -1.42711,-1.427111 -0.48125,-1.910358 -2.55655,0.164939 -0.19243,0.192428 -0.38486,0.384856 -0.57728,0.577284 -1.00883,1.008831 -2.18304,2.178224 -2.63902,3.546178 -0.20433,0.612994 -1.18299,2.982405 -1.89679,2.803954 -0.13599,-0.034 -0.2749,-0.05498 -0.41235,-0.08247 -0.7643,-0.15286 -0.77333,-1.361454 -0.90716,-1.896793 -0.0133,-0.05334 0,-0.109959 0,-0.164938 0,-0.814501 -1.21028,-2.39381 -1.48445,-3.216301 -0.0778,-0.233258 -0.21992,-0.439836 -0.32987,-0.659754 -1.12206,-2.24411 -2.79851,-4.238989 -4.20594,-6.3501313 -0.77021,-1.1553188 -2.65457,-1.248149 -3.79358,-2.0617312 -0.51694,-0.3692412 -1.01899,2.450318 -1.15457,2.7214855 -0.51105,1.022092 -0.82469,1.885633 -0.82469,3.051362 0,0.829328 -0.41502,1.910127 -0.57729,2.721485 -0.24492,1.224628 -0.93007,2.318303 -1.23704,3.546177 -0.31882,1.275315 -0.69701,2.532727 -0.90716,3.793585 -0.15985,0.959139 -0.85224,0.529164 -1.31951,0.412347 -0.23846,-0.05962 -0.69855,-0.431748 -0.98963,-0.577285 -0.36024,-0.180122 -0.66487,-1.084899 -0.82469,-1.484446 -0.43408,-1.085208 -1.13815,-2.045312 -1.97926,-2.886424 -0.95489,-0.954892 -1.88127,-1.286843 -3.2163,-1.731854 z"
           inkscape:connector-curvature="0" />
        <path
           style="fill:#c8c8c8;fill-opacity:1;fill-rule:evenodd;stroke:none;stroke-width:1px;stroke-linecap:butt;stroke-linejoin:miter;stroke-opacity:1"
           sodipodi:nodetypes="ccccccccccccccccccccccc"
           id="path2160"
           d="m 162.71182,17.377899 c 0.66016,0.498221 0.65321,1.128386 0.82469,1.814324 0.14378,0.575094 0.10629,1.167363 0.24741,1.731854 0.18097,0.723866 -0.24741,1.66076 -0.24741,2.391608 0,0.900873 -0.32988,1.368764 -0.32988,1.979262 0,0.652109 -0.0671,1.380961 0.0825,1.979262 0.14793,0.591712 0.16494,1.54605 0.16494,2.1442 0,0.668527 0.049,1.66499 0.32988,2.22667 0.38271,0.765429 0.41235,0.725302 0.41235,1.401977 0,0.618084 -0.0825,1.187399 -0.0825,1.814323 0,0.548767 0.0749,1.814919 -0.27662,2.166425 -0.45012,0.450114 -3.08601,-0.159766 -3.64235,-0.159766 -0.98488,0 -1.48553,-0.674326 -2.51363,-1.017028 -0.43523,-0.145075 -0.24741,-1.208014 -0.24741,-1.566916 0,-0.596501 -0.0825,-1.151277 -0.0825,-1.731854 0,-0.457907 -0.0825,-1.075713 -0.0825,-1.649385 0,-0.648775 -0.0716,-1.363093 0.0825,-1.979261 0.13556,-0.542261 0.54934,-0.919778 0.74222,-1.401978 0.26791,-0.669759 0.82793,-1.186367 1.23704,-1.731854 0.38607,-0.514755 0.82514,-1.156344 0.98963,-1.814323 0.18707,-0.748289 0.82469,-1.265956 0.82469,-2.061731 0,-0.795733 0.28517,-1.578853 0.57729,-2.309139 0.31026,-0.775644 1.20225,-1.376196 0.98963,-2.22667 z"
           inkscape:connector-curvature="0" />
        <path
           style="fill:#c8c8c8;fill-opacity:1;fill-rule:evenodd;stroke:none;stroke-width:1px;stroke-linecap:butt;stroke-linejoin:miter;stroke-opacity:1"
           id="path2162"
           d="m 175.98937,7.8939363 c 0,0.02749 0,0.054979 0,0.082469 0,0.526625 0.85509,1.8838402 0.98963,2.5565467 0.13635,0.681772 0.23448,1.245959 0.49481,1.896793 0.22946,0.573645 0.41235,0.969775 0.41235,1.566915 0,0.869462 -0.2971,1.58383 -0.65975,2.309139 -0.2777,0.5554 -0.34946,1.315354 -0.49482,1.896793 -0.1773,0.709206 0.0825,1.401209 0.0825,2.391608 0,0.706722 0.49967,1.338921 0.65975,1.979262 0.1785,0.713976 0.32988,1.293644 0.32988,2.061731 0,0.985983 0.24741,1.95567 0.24741,2.968893 0,0.768792 -0.31395,1.535056 -0.65976,2.226669 -0.29871,0.597437 -0.56094,1.121882 -0.82469,1.649385 -0.34804,0.696087 -1.55441,-0.547291 -1.81432,-0.742223 -0.43485,-0.326137 -0.54895,-1.083736 -0.74222,-1.566916 -0.30605,-0.765119 -0.88352,-1.272207 -1.23704,-1.979262 -0.39892,-0.797837 -1.23023,-1.462749 -1.81433,-2.1442 -0.58592,-0.683574 -0.66888,-0.779065 -0.49481,-1.649385 0.11216,-0.560793 0.90611,-1.290614 1.23704,-1.731854 0.51875,-0.691666 0.82469,-1.19517 0.82469,-2.061731 0,-1.376227 0.34665,-2.953522 0.65975,-4.205932 0.26481,-1.059231 -0.0206,-2.164942 0.41235,-3.463708 0.20458,-0.613751 0.79872,-1.267569 1.0721,-1.814323 0.27194,-0.5438888 0.66522,-0.9180945 0.90716,-1.4019775 0.12877,-0.2575296 0.23941,-0.5364668 0.41235,-0.8246924 z"
           inkscape:connector-curvature="0" />
        <path
           style="fill:#c8c8c8;fill-opacity:1;fill-rule:evenodd;stroke:none;stroke-width:1px;stroke-linecap:butt;stroke-linejoin:miter;stroke-opacity:1"
           id="path2164"
           d="m 193.55532,13.336906 c -0.0548,0.565292 0.11756,1.75643 -0.0825,2.556547 -0.13208,0.528294 0,0.950841 0,1.484446 0,0.644952 0.2013,1.253921 0.32987,1.896793 0.13239,0.66194 0.12299,1.357174 0.24741,1.979262 0.12813,0.640655 0.52312,1.321932 0.74223,1.979262 0.21322,0.639673 0.0825,1.10447 0.0825,1.731854 0,0.557505 -0.20665,0.945977 -0.0825,1.566915 0.13663,0.683199 -0.88113,0.824693 -1.40198,0.824693 -0.4865,0 -1.02163,-0.290077 -1.23704,-0.577285 -0.35252,-0.47002 -0.81601,-0.838799 -1.23704,-1.154569 -0.41201,-0.309007 -0.58599,-0.750934 -0.98963,-1.15457 -0.59875,-0.598754 -1.30599,-1.142986 -1.89679,-1.649385 -0.42385,-0.363294 -0.49482,-0.840411 -0.49482,-1.401977 0,-0.514678 0.54964,-1.263753 0.65976,-1.814323 0.15543,-0.777163 1.13392,-1.237001 1.56691,-1.814323 0.42351,-0.564673 0.66916,-1.090916 0.98963,-1.731855 0.33528,-0.670558 1.00482,-1.102477 1.31951,-1.731854 0.24326,-0.486518 1.01587,-0.833439 1.48445,-0.989631 z"
           inkscape:connector-curvature="0" />
        <path
           style="fill:#5c2700;fill-opacity:1"
           sodipodi:nodetypes="cccccccccccccccccccccccccccccccccccccccccccccccccccccccccccccccccccccccccccccccccccccccccccccccccccccccccccccccccccccccccccccccccccccccccccccccc"
           id="path1727"
           d="m 176.18816,5.8929955 c -0.1114,-10e-7 -0.11771,0.18093 -0.0312,0.40625 0.18621,0.485259 -0.15146,0.53605 -0.59375,0.09375 -0.23539,-0.235401 -0.4104,-0.07238 -0.71875,0.625 -0.43879,0.992379 -1.5631,5.1418105 -2.0625,7.6250005 -0.16711,0.830939 -0.60237,2.25966 -0.96875,3.15625 -0.36638,0.896599 -0.86645,2.50464 -1.125,3.59375 -0.25854,1.089099 -0.56647,1.96875 -0.6875,1.96875 -0.42867,-1e-6 -1.31251,-0.91875 -1.3125,-1.375 0,-1.668391 -2.45922,-4.86067 -4.15625,-5.40625 -0.55004,-0.176841 -1.07256,-0.5007 -1.15625,-0.71875 -0.22233,-0.579381 -1.00001,-0.48183 -1,0.125 0,0.285189 -0.37906,1.21474 -0.84375,2.09375 -0.46469,0.879019 -1.00816,2.43658 -1.21875,3.4375 -0.28642,1.361389 -0.72741,2.29686 -1.75,3.78125 -0.75182,1.09136 -1.375,2.14396 -1.375,2.3125 0,0.16854 -0.12474,0.43714 -0.3125,0.625 -0.23652,0.23661 -0.34374,1.3968 -0.34375,3.75 0,3.27041 0.005,3.37955 0.53125,3.21875 0.72601,-0.22196 0.71682,-0.18352 0.9375,-1.21875 0.12898,-0.60509 0.0344,-1.4248 -0.3125,-2.46875 -0.49547,-1.49082 -0.52046,-1.59744 -0.0625,-2.5625 0.26279,-0.55378 0.84159,-1.4065 1.28125,-1.875 1.0391,-1.10733 2.40625,-4.03937 2.40625,-5.21875 0,-0.977961 0.7246,-3.12499 1.0625,-3.125 0.1098,-1e-6 0.335,0.29407 0.5,0.65625 0.62228,1.365759 0.62932,2.45613 0.0625,4.21875 -0.41349,1.285849 -0.56251,2.4589 -0.5625,4.5 0,2.45835 0.0845,2.93348 0.71875,4.125 0.56755,1.06614 0.68766,1.55575 0.5625,2.46875 -0.0866,0.63148 -0.0637,1.24882 0.0312,1.34375 0.0949,0.09493 0.38117,-0.0323 0.65625,-0.28125 0.6866,-0.62136 0.64268,-1.76238 -0.21875,-4.78125 -0.92951,-3.25742 -0.97361,-5.36629 -0.15625,-7.25 0.48483,-1.117351 0.55921,-1.55829 0.34375,-2.125 -0.15021,-0.395081 -0.28126,-1.2214 -0.28125,-1.8125 0,-0.732961 -0.11733,-1.06249 -0.375,-1.0625 -0.4157,-1e-6 -0.74533,-0.94209 -0.53125,-1.5 0.18658,-0.486201 1.57568,0.22185 2.21875,1.125 0.26082,0.366319 0.73768,0.97945 1.0625,1.375 0.65096,0.792719 0.95587,1.35168 1.5625,2.875 0.23611,0.592899 0.78607,1.24237 1.3125,1.5625 0.49726,0.302399 0.85007,0.61106 0.8125,0.6875 -0.19546,0.397849 0.006,0.75453 0.34375,0.625 0.52971,-0.203271 0.99994,0.42419 2.1875,2.8125 0.79542,1.59968 1.57685,2.5712 3.5,4.4375 1.35447,1.31443 2.55858,2.37501 2.6875,2.375 0.63945,0 0.0399,-0.88878 -2.0625,-3 -1.27152,-1.27687 -2.33959,-2.51837 -2.34375,-2.78125 -0.004,-0.26289 -0.11651,-0.49999 -0.25,-0.5 -0.1335,0 -0.30476,-0.42786 -0.40625,-0.96875 -0.30752,-1.63923 -0.99856,-2.79912 -1.84375,-3.09375 -0.71855,-0.250491 -0.75918,-0.33972 -0.4375,-0.90625 0.19282,-0.339611 0.81224,-1.11345 1.375,-1.71875 0.56276,-0.605321 1.22222,-1.61098 1.46875,-2.25 0.39083,-1.013051 0.40261,-1.35027 0.0937,-2.71875 -0.19482,-0.863201 -0.3593,-2.01064 -0.34375,-2.53125 0.0312,-1.044481 1.12357,-4.6562405 1.40625,-4.6562505 0.66154,-10e-7 1.93028,2.8286205 1.9375,4.3125005 0.002,0.333889 -0.33797,1.31964 -0.75,2.1875 -0.81381,1.714119 -0.8798,2.46263 -0.5,6.40625 0.16497,1.712929 0.36023,2.40626 0.625,2.40625 0.25767,-1e-6 0.34374,-0.39214 0.34375,-1.28125 0,-2.237301 0.29085,-1.08462 0.34375,1.375 0.0352,1.63574 0.14754,2.34375 0.375,2.34375 0.52347,0 0.59526,-0.50722 0.375,-3.125 -0.12298,-1.461531 -0.44382,-2.99642 -0.78125,-3.78125 -0.7501,-1.744601 -0.71754,-2.27955 0.25,-4.1875 0.95283,-1.878941 1.00267,-2.5954 0.3125,-4.375 -0.63448,-1.635991 -0.96224,-3.9062405 -0.5625,-3.9062505 0.50151,-10e-7 3.49703,3.0350205 4.625,4.6875005 0.59634,0.873639 1.26323,2.24225 1.46875,3.03125 0.46731,1.794099 1.45511,3.8397 2.625,5.46875 0.50635,0.705079 0.92213,1.62895 0.9375,2.09375 0.015,0.454749 0.0943,0.78755 0.1875,0.75 0.0932,-0.03756 0.63383,0.48026 1.1875,1.15625 2.06189,2.51745 3.75628,4.375 4,4.375 0.48785,0 0.22126,-0.63268 -0.65625,-1.625 -2.60406,-2.944791 -3.93527,-4.8147 -3.65625,-5.09375 0.0654,-0.06536 0.85548,0.86581 1.78125,2.0625 0.92576,1.1967 1.98051,2.40177 2.34375,2.6875 0.589,0.4633 1.44838,1.60697 1.85299,2.92695 0.19001,0.61991 0.69528,0.6199 0.6875,0 -0.0124,-0.99057 -1.09887,-2.4968 -2.60299,-4.11445 -0.85673,-0.92141 -1.87444,-2.1161 -2.25,-2.65625 -0.37556,-0.540131 -0.94325,-1.12837 -1.28125,-1.3125 -1.1014,-0.600041 -0.5825,-2.74963 1.03125,-4.1875 0.44749,-0.398711 1.26328,-1.37779 1.78125,-2.1875 0.51797,-0.809711 1.06678,-1.56234 1.21875,-1.65625 0.17685,-0.109301 0.24999,0.57551 0.25,1.875 0,1.130189 0.20327,2.55491 0.4375,3.21875 0.23141,0.655879 0.48078,1.90972 0.5625,2.8125 0.0817,0.902759 0.22621,1.83718 0.3125,2.0625 0.0863,0.225329 0.1176,0.51232 0.0937,0.625 -0.0239,0.112659 0.2308,0.1875 0.53125,0.1875 0.35695,-1e-6 0.53126,-0.15666 0.53125,-0.5 0,-0.783701 -0.53469,-3.21909 -1.125,-5.15625 -0.52695,-1.729241 -0.70693,-5 -0.28125,-5 0.12671,-10e-7 0.71147,0.59895 1.3125,1.3125 0.84323,1.001119 1.13566,1.60584 1.25,2.625 0.11268,1.004489 0.35088,1.54806 1.03125,2.25 0.492,0.507619 1.10522,1.49993 1.34375,2.21875 0.39637,1.194419 0.59029,1.37638 2.25,2.25 2.27027,1.19501 2.50192,1.40138 3.40625,2.96875 0.40434,0.7008 0.76028,1.31333 0.8125,1.375 0.0522,0.06167 0.36092,-0.10773 0.65625,-0.375 0.52749,-0.47736 0.50128,-0.49441 0,-1.46875 -0.71723,-1.39413 -1.7523,-2.29764 -3.84375,-3.28125 -2.16921,-1.020171 -2.30873,-1.16411 -2.8125,-3.0625 -0.57181,-2.154811 -0.69591,-2.40452 -2,-4.25 -0.65038,-0.920401 -1.18749,-1.80187 -1.1875,-1.96875 0,-0.166881 -0.4931,-0.74736 -1.09375,-1.3125 -0.60063,-0.565151 -1.0935,-1.26837 -1.09375,-1.53125 -5.5e-4,-0.583641 -0.75054,-0.63111 -0.96875,-0.0625 -0.0865,0.225329 -0.35323,0.40625 -0.5625,0.40625 -0.20926,-10e-7 -0.375,0.19152 -0.375,0.40625 0,0.214719 -0.70732,1.13095 -1.59375,2.0625 -0.88643,0.931559 -1.7982,2.04401 -2,2.4375 -0.2018,0.393489 -0.68781,1.25101 -1.09375,1.90625 l -0.75,1.1875 -0.53125,-0.875 c -0.29101,-0.478541 -0.59085,-1.36427 -0.6875,-1.96875 -0.2849,-1.781691 -2.57285,-5.85472 -4.25,-7.5625 -2.27724,-2.3188015 -4.83534,-4.6875105 -5.0625,-4.6875005 z m -0.15625,2.59375 c 0.15267,-0.094361 0.28124,0.0158 0.28125,0.25 0,0.479749 -0.14086,0.56635 -0.375,0.1875 -0.0864,-0.139841 -0.0589,-0.34316 0.0937,-0.4375 z m -2.28125,8.4062505 c 0.0908,0.09076 0.11014,0.33408 0.0312,0.53125 -0.0872,0.217879 -0.14315,0.16192 -0.15625,-0.15625 -0.0119,-0.287921 0.0343,-0.46576 0.125,-0.375 z m 23.65625,2.09375 c 0.0574,-0.172211 0.25864,0.01366 0.4375,0.40625 0.2041,0.447949 0.20435,0.71874 0.0312,0.71875 -0.33229,-1e-6 -0.61389,-0.68955 -0.46875,-1.125 z m -24.9375,0.5625 c 0.008,0.225329 -0.10438,0.58716 -0.25,0.8125 -0.32266,0.499269 -0.32266,0.06335 0,-0.6875 0.15477,-0.360191 0.24011,-0.39514 0.25,-0.125 z m -9.28125,10.375 c 0.15909,0 0.28125,0.13102 0.28125,0.28125 0,0.34998 -0.18994,0.34998 -0.40625,0 -0.0928,-0.15023 -0.0341,-0.28125 0.125,-0.28125 z"
           inkscape:connector-curvature="0" />
      </g>
    </g>
    <g
       id="g3350"
       transform="translate(161.71153,482.81099)">
      <title
         id="title3352">Layer 1</title>
      <path
         stroke-miterlimit="4"
         d="m 317.66434,264.43332 c -68.15117,24.63183 20.0643,134.04092 -53.57184,229.50381 -13.61046,17.64667 81.97265,2.97727 115.76626,-94.80368 32.86167,-95.0899 1.60358,-153.11393 -62.19442,-134.70013 z"
         id="path3800_2_"
         inkscape:connector-curvature="0"
         style="fill:#ffffff;stroke:#010101;stroke-width:4;stroke-miterlimit:4" />
      <path
         stroke-miterlimit="4"
         id="path6211"
         d="m 317.66434,264.43332 c -68.15117,24.63183 20.0643,134.04092 -53.57184,229.50381 -13.61046,17.64667 81.97265,2.97727 115.76626,-94.80368 32.86167,-95.0899 1.60358,-153.11393 -62.19442,-134.70013 z"
         inkscape:connector-curvature="0"
         style="fill:#ffffff;stroke:#010101;stroke-width:4;stroke-miterlimit:4" />
      <path
         d="m 339.98801,261.03198 c -0.58359,0 -1.17862,0.0299 -1.77069,0.0442 22.96536,18.60046 32.68447,61.64609 20.93829,121.51279 -15.61484,79.58313 -75.89411,113.91528 -95.92868,115.72787 6.50488,9.29172 86.36972,-11.56991 116.64603,-99.17621 28.75497,-83.2026 8.38754,-138.0375 -39.88495,-138.10861 z"
         id="path3200_1_"
         inkscape:connector-curvature="0"
         style="fill:#010101;fill-opacity:0.3137" />
      <path
         stroke-miterlimit="4"
         id="path6213"
         d="M 96.053246,264.43332 C 164.20587,289.06515 75.990342,398.47424 149.62656,493.93713 163.23692,511.5838 67.652421,496.9144 33.860173,399.13345 1.000012,304.04355 32.258019,246.01952 96.053246,264.43332 Z"
         inkscape:connector-curvature="0"
         style="fill:#ffffff;stroke:#010101;stroke-width:4;stroke-miterlimit:4" />
      <path
         d="m 22.853394,306.86124 c -4.888613,23.50122 -1.840139,55.06241 11.022346,92.28073 33.792252,97.78076 129.37112,112.4602 115.76067,94.81653 -5.82071,-7.54621 -10.654,-15.19773 -14.60907,-22.87046 C 108.18195,464.62253 58.464566,436.38135 36.000595,371.37787 27.673996,347.27567 23.4597,325.55853 22.853393,306.86124 Z m 100.974546,9.03103 c -1.25084,12.15375 -2.62771,25.0745 -3.23121,38.62073 1.40662,-13.94061 2.94648,-26.96823 3.23121,-38.62073 z"
         id="path3205_1_"
         inkscape:connector-curvature="0"
         style="fill:#010101;fill-opacity:0.3137" />
      <path
         stroke-miterlimit="4"
         d="m 156.8766,464.8436 c -68.113363,7.04757 -146.236631,62.44558 -115.18482,74.52707 31.05162,12.08123 121.1757,17.12048 138.20414,3.02557 8.75012,-7.24292 24.40565,-25.38196 26.25072,-42.40256 1.84748,17.0192 17.45726,35.16031 26.20654,42.40256 17.0283,14.09491 107.19669,9.05566 138.24841,-3.02557 31.05164,-12.08149 -47.07159,-67.4795 -115.1848,-74.52707 -35.07403,3.3977 -47.68959,15.24295 -49.27015,28.83197 -1.58042,-13.58902 -14.19616,-25.43427 -49.27001,-28.83197 l -3e-5,0 z"
         id="path3806"
         inkscape:connector-curvature="0"
         style="fill:url(#radialGradient6267);fill-rule:evenodd;stroke:#000000;stroke-width:5;stroke-miterlimit:4" />
      <path
         d="m 156.88768,464.86377 c -33.43163,3.45923 -69.243317,18.56659 -93.405075,34.48282 36.593565,17.00986 81.336045,27.49264 129.837585,28.69833 6.21478,-8.2185 11.78235,-18.29599 12.83766,-28.03109 1.04689,9.64386 6.48377,19.63168 12.61624,27.80874 47.70455,-2.03015 91.51982,-13.02166 127.18151,-30.34469 -24.0752,-15.22193 -58.39426,-29.28925 -90.52776,-32.61411 -35.07391,3.39804 -47.68947,15.24292 -49.26999,28.83194 -1.58057,-13.58884 -14.19611,-25.4339 -49.27017,-28.83194 z"
         id="path3194"
         inkscape:connector-curvature="0"
         style="fill:#000000;fill-opacity:0.31372501;fill-rule:evenodd" />
      <path
         stroke-miterlimit="4"
         id="path2383"
         d="m 362.02704,365.00207 c 0.0255,86.15119 -69.45297,156.00446 -155.16678,156.00446 -85.71382,0 -155.192356,-69.85464 -155.165428,-156.00446 -0.02694,-86.15136 69.451608,-156.0043 155.165428,-156.0043 85.71381,-0.002 155.19092,69.85294 155.16678,156.0043 z"
         inkscape:connector-curvature="0"
         style="fill:#ffffff;stroke:#010101;stroke-width:4;stroke-linecap:round;stroke-linejoin:round;stroke-miterlimit:4" />
      <path
         id="path3221"
         d="m 352.64789,311.4971 c 0.10763,2.39487 0.17706,4.83383 0.17706,7.25284 0,86.09021 -69.50684,155.95181 -155.15829,155.95181 -66.95136,0 -124.080189,-42.71417 -145.818871,-102.47101 3.758133,82.74134 71.783271,148.74454 155.026571,148.74454 85.65008,0 155.15832,-69.86181 155.15832,-155.95184 0,-18.79703 -3.31198,-36.83368 -9.38479,-53.52634 z"
         inkscape:connector-curvature="0"
         style="fill:#010101;fill-opacity:0.3137" />
      <path
         id="path6185"
         d="m 246.25594,178.7102 -86.01236,2.22471 c 0,0 2.10763,19.97943 -2.70034,41.82411 -7.42473,2.50104 -14.59344,5.57059 -21.46989,9.12123 24.0348,20.17564 52.04658,32.56943 69.81035,32.56943 18.59489,0 46.88333,-12.60808 70.87277,-33.05887 -7.94281,-4.03537 -16.26773,-7.42629 -24.92279,-10.05559 -6.2728,-22.20898 -5.57775,-42.62501 -5.57775,-42.62501 z"
         inkscape:connector-curvature="0"
         style="opacity:0.32000002;fill:#010101;stroke:#010101;stroke-width:4;stroke-linecap:round;stroke-linejoin:round" />
      <path
         stroke-miterlimit="4"
         d="m 276.44504,257.44336 c -0.24744,15.47601 -31.86952,24.20459 -71.18263,24.20459 -39.3131,0 -71.18267,-10.83649 -71.18267,-24.20459 14.35312,-11.62677 31.86957,-24.20461 71.18267,-24.20461 39.31311,0 52.12764,7.73392 71.18263,24.20461 z"
         id="ellipse311"
         inkscape:connector-curvature="0"
         style="fill:#ffffff;stroke:#000000;stroke-width:3;stroke-miterlimit:4" />
      <path
         stroke-miterlimit="4"
         id="path2399"
         d="m 134.77928,258.70041 c 35.12184,-25.38281 25.45383,-83.47792 25.45383,-83.47792 l 83.29059,-4.92473 c 0,0 -2.15029,61.2686 33.68831,87.08923"
         inkscape:connector-curvature="0"
         style="fill:#ffffff;stroke:#010101;stroke-width:4;stroke-linecap:round;stroke-linejoin:round;stroke-miterlimit:4" />
      <path
         d="m 244.74226,181.63985 -81.30665,2.11988 c 0,0 0.0655,0.86919 0.16739,2.50156 0.0522,0.76682 0.0764,1.33307 0.12544,2.50156 0.009,0.18649 0.0346,0.31302 0.0418,0.50871 0.0211,0.55287 0.0262,0.98582 0.0418,1.61116 0.006,0.18146 -0.004,0.36379 0,0.55113 0.0211,0.95853 0.0411,1.94957 0.0418,3.05287 5.3e-4,0.84781 -0.0259,1.70363 -0.0418,2.62861 -0.006,0.28244 0.007,0.51654 0,0.80575 -0.0113,0.46962 -0.0262,0.95488 -0.0418,1.44153 -0.037,1.15962 -0.0973,2.27162 -0.16737,3.51918 -0.01,0.16251 0.01,0.30241 0,0.46631 0.77882,5.30884 0.20101,8.31703 -2.48472,20.26674 -1.4036,6.42846 -3.64924,13.03563 -6.55388,19.29152 18.95043,12.86946 38.91046,26.13487 52.34539,26.13487 13.77637,0 32.85053,-11.75366 51.51632,-24.32767 -3.73008,-6.80163 -8.04488,-16.45331 -10.02691,-23.52728 -3.2798,-9.71164 -1.78636,-13.55809 -2.65226,-21.0605 -0.25196,-2.19461 -0.44293,-4.21456 -0.58586,-6.10555 -0.14171,-1.8743 -0.22956,-3.58209 -0.29293,-5.08793 -0.0647,-1.5345 -0.11222,-2.86428 -0.12555,-3.94291 -0.0256,-2.06549 0,-3.34954 0,-3.34954 l -2.5e-4,0 z"
         id="path6177"
         inkscape:connector-curvature="0"
         style="opacity:0.32000002;fill:#010101;stroke:#010101;stroke-width:3.79639602;stroke-linecap:round;stroke-linejoin:round" />
      <path
         id="path314"
         d="M 275.20691,26.698706 C 256.76599,13.658039 233.35861,6.008069 205.86865,6.008069 c -25.01382,0 -46.35161,5.977109 -63.65928,16.359449 -19.79792,13.753782 -35.69751,33.7353 -45.450604,57.467329 -4.493355,13.226982 -6.826492,27.625923 -6.826492,42.702693 0,64.32007 79.504996,116.52931 115.937756,116.52931 37.84655,0 115.93637,-52.20924 115.93637,-116.52931 0,-15.53648 -2.59372,-30.355502 -7.51206,-43.911502 -8.7912,-20.827419 -22.33224,-38.707474 -39.08743,-51.927332 z"
         inkscape:connector-curvature="0"
         style="fill:#ffffff;stroke:#010101;stroke-width:4;stroke-linecap:round;stroke-linejoin:round" />
      <path
         id="path5326"
         d="m 211.36381,133.09143 c -15.79971,0 -32.97674,16.63945 -32.28808,27.14414 9.48775,37.20721 -30.663,54.29002 34.3506,54.29002 65.01361,0 17.66399,-33.54776 29.54202,-55.16617 -0.68528,-12.2568 -21.29359,-27.14222 -31.60453,-26.26799 z"
         inkscape:connector-curvature="0"
         style="opacity:0.32000002;fill:#010101;stroke:#010101;stroke-width:6.09131813" />
      <path
         stroke-miterlimit="4"
         d="m 209.67956,123.4679 c -23.56642,0 -49.18721,24.60449 -48.16003,40.13778 14.15167,55.01825 -45.73605,80.27861 51.23645,80.27861 96.97247,0 26.34697,-49.60707 44.06406,-81.57391 -1.02216,-18.12441 -31.76096,-40.13545 -47.14047,-38.84248 z"
         id="path2391_1_"
         inkscape:connector-curvature="0"
         style="fill:url(#linearGradient6269);stroke:#010101;stroke-width:4;stroke-miterlimit:4" />
      <g
         id="g332">
        <path
           id="path2387_1_"
           d="m 175.72115,47.554455 c -22.30953,0 -40.42751,21.055279 -40.42751,46.998089 0,25.943166 18.11798,46.997046 40.42751,46.997046 13.10893,0 24.7418,-7.27855 32.1264,-18.54069 7.3846,11.27082 19.04295,18.54069 32.15897,18.54069 22.30674,0 40.4261,-21.05545 40.4261,-46.997046 0,-25.944199 -18.11936,-46.998089 -40.4261,-46.998089 -13.1146,0 -24.77437,7.272816 -32.15897,18.542072 -7.3846,-11.25935 -19.02028,-18.542072 -32.1264,-18.542072 z"
           inkscape:connector-curvature="0"
           style="fill:#ffffff;stroke:#010101;stroke-width:5;stroke-linecap:round" />
        <g
           id="g335">
          <path
             id="path2411_1_"
             d="m 205.29352,97.733322 c 0,6.496788 -5.23992,11.761998 -11.70232,11.761998 -6.46379,0 -11.70369,-5.26661 -11.70369,-11.761998 0,-6.49678 5.2399,-11.763382 11.70369,-11.763382 6.4624,0 11.70232,5.266602 11.70232,11.763382 z"
             inkscape:connector-curvature="0"
             style="fill:#010101;stroke:#010101;stroke-width:3.16930008;stroke-linecap:round" />
          <path
             id="path3341_1_"
             d="m 192.40129,93.613136 c 0,1.685547 -1.35709,3.050949 -3.03433,3.050949 -1.67722,0 -3.03572,-1.365402 -3.03572,-3.050949 0,-1.685898 1.3585,-3.052864 3.03572,-3.052864 1.67724,0 3.03433,1.368355 3.03433,3.052864 z"
             inkscape:connector-curvature="0"
             style="fill:#ffffff" />
        </g>
        <g
           id="g339">
          <path
             id="path3301_1_"
             d="m 234.93379,97.733322 c 0,6.496788 -5.2399,11.761998 -11.7023,11.761998 -6.46379,0 -11.7037,-5.26661 -11.7037,-11.761998 0,-6.49678 5.23991,-11.763382 11.7037,-11.763382 6.4624,0 11.7023,5.266602 11.7023,11.763382 z"
             inkscape:connector-curvature="0"
             style="fill:#010101;stroke:#010101;stroke-width:3.16930008;stroke-linecap:round" />
          <path
             id="path3343_1_"
             d="m 222.04161,93.613136 c 0,1.685547 -1.3585,3.050949 -3.03571,3.050949 -1.67726,0 -3.03572,-1.365402 -3.03572,-3.050949 0,-1.685898 1.35846,-3.052864 3.03572,-3.052864 1.67577,0.0016 3.03571,1.368355 3.03571,3.052864 z"
             inkscape:connector-curvature="0"
             style="fill:#ffffff" />
        </g>
      </g>
      <path
         stroke-miterlimit="4"
         d="m 217.71202,53.113045 c 10.3297,-47.667058 27.75047,-54.119694 27.75047,-54.119694 0,0 -9.68963,24.864186 -0.91337,17.947493 13.58928,-10.710133 56.79674,22.85293 56.79674,22.85293 0,0 -57.24625,-25.384034 -83.63384,13.319271 z"
         id="path3283"
         inkscape:connector-curvature="0"
         style="fill:#8a916f;fill-rule:evenodd;stroke:#000000;stroke-width:3.78084707;stroke-linejoin:round;stroke-miterlimit:4" />
      <path
         stroke-miterlimit="4"
         d="M 194.02666,53.113045 C 183.69704,5.445987 166.27618,-1.006649 166.27618,-1.006649 c 0,0 9.68964,24.864186 0.91346,17.947493 -13.58927,-10.710306 -56.79682,22.85293 -56.79682,22.85293 0,0 57.24633,-25.384034 83.63384,13.319271 z"
         id="path3285"
         inkscape:connector-curvature="0"
         style="fill:#8a916f;fill-rule:evenodd;stroke:#000000;stroke-width:3.78084707;stroke-linejoin:round;stroke-miterlimit:4" />
      <g
         display="none"
         id="g328"
         style="display:none">
        <path
           d="m 3453.7913,1697.7234 c 43.9362,-106.9785 118.0349,-121.4612 118.0349,-121.4612 0,0 -41.2115,55.8052 -3.8858,40.2804 57.7996,-24.0427 241.5901,51.2856 241.5901,51.2856 0,0 -243.5007,-56.9597 -355.7392,29.8952 z"
           id="path3283_1_"
           inkscape:connector-curvature="0"
           style="fill:#ffffff;stroke:#010101;stroke-width:5;stroke-linejoin:round" />
        <path
           d="m 3353.0344,1687.7472 c -43.9355,-106.9783 -118.0351,-121.4608 -118.0351,-121.4608 0,0 41.2182,55.7984 3.8799,40.2803 -57.8003,-24.0363 -241.5843,51.2854 -241.5843,51.2854 0,0 243.5008,-56.9662 355.7395,29.8951 z"
           id="path3285_1_"
           inkscape:connector-curvature="0"
           style="fill:#ffffff;stroke:#010101;stroke-width:5;stroke-linejoin:round" />
      </g>
      <g
         display="none"
         id="layer2"
         style="display:none">
        <rect
           stroke-miterlimit="4"
           y="-360.40643"
           x="-30.375608"
           height="83.765335"
           width="83.765335"
           id="rect3680"
           style="fill:none;stroke:#000000;stroke-width:0.83499998;stroke-linecap:round;stroke-linejoin:round;stroke-miterlimit:4;stroke-dashoffset:0" />
        <rect
           stroke-miterlimit="4"
           id="rect3770"
           width="83.765335"
           height="83.765335"
           x="69.624382"
           y="-360.40643"
           style="fill:none;stroke:#000000;stroke-width:0.83499998;stroke-linecap:round;stroke-linejoin:round;stroke-miterlimit:4;stroke-dashoffset:0" />
        <rect
           stroke-miterlimit="4"
           id="rect3845"
           width="83.765335"
           height="83.765335"
           x="-30.375608"
           y="-256.40643"
           style="fill:none;stroke:#000000;stroke-width:0.83499998;stroke-linecap:round;stroke-linejoin:round;stroke-miterlimit:4;stroke-dashoffset:0" />
        <rect
           stroke-miterlimit="4"
           y="-256.40643"
           x="69.624382"
           height="83.765335"
           width="83.765335"
           id="rect3892"
           style="fill:none;stroke:#000000;stroke-width:0.83499998;stroke-linecap:round;stroke-linejoin:round;stroke-miterlimit:4;stroke-dashoffset:0" />
        <rect
           stroke-miterlimit="4"
           id="rect3928"
           width="83.765335"
           height="83.765335"
           x="173.62439"
           y="-302.40643"
           style="fill:none;stroke:#000000;stroke-width:0.83499998;stroke-linecap:round;stroke-linejoin:round;stroke-miterlimit:4;stroke-dashoffset:0" />
        <rect
           stroke-miterlimit="4"
           y="-302.40643"
           x="277.62439"
           height="83.765335"
           width="83.765335"
           id="rect3981"
           style="fill:none;stroke:#000000;stroke-width:0.83499998;stroke-linecap:round;stroke-linejoin:round;stroke-miterlimit:4;stroke-dashoffset:0" />
      </g>
    </g>
    <path
       style="fill:#0000ff;fill-rule:evenodd;stroke:none;stroke-width:1px;stroke-linecap:butt;stroke-linejoin:miter;stroke-opacity:1"
       d="m 174.28571,863.79077 c 88.36578,78.30888 186.5882,141.57343 417.14286,2.85715 l 91.42857,219.99998 -631.428569,25.7143 z"
       id="path3508"
       inkscape:connector-curvature="0"
       sodipodi:nodetypes="ccccc" />
  </g>
</svg>
